<svg xmlns="http://www.w3.org/2000/svg" width="64" height="64" viewBox="0 0 64 64">
  <g id="Group_2" data-name="Group 2" transform="translate(-0.542)">
    <path id="Fill_1" data-name="Fill 1" d="M63.859,32.54c.048-.008.095.008.141,0-.068-9.751-.923-15.063-7.637-21.648-2.4-2.351-6.211-4.442-9.119-6.071C45.509,3.849,43.365,1.146,34.5.124,29.419-.463,22.568,1.18,18.767,2.037A28.376,28.376,0,0,0,10.6,5.847C8.181,7.438,5.461,11.091,4.1,13.7.74,20.128.269,24.86,0,32.54Z" transform="translate(64.542 0) rotate(90)" fill="#fffefc"/>
    <path id="Fill_1_Copy_3" data-name="Fill 1 Copy 3" d="M63.859,32.54c.048-.008.095.008.141,0-.068-9.751-.923-15.063-7.637-21.648-2.4-2.351-6.211-4.442-9.119-6.071C45.509,3.849,43.365,1.146,34.5.124,29.419-.463,22.568,1.18,18.767,2.037A28.376,28.376,0,0,0,10.6,5.847C8.181,7.438,5.461,11.091,4.1,13.7.74,20.128.269,24.86,0,32.54Z" transform="translate(0.542 64) rotate(-90)" fill="#fffefc"/>
  </g>
</svg>
