<svg id="Icon" xmlns="http://www.w3.org/2000/svg" width="13.411" height="15.991" viewBox="0 0 13.411 15.991">
  <path id="Fill_1" data-name="Fill 1" d="M11.606,1.171,12.315.008,12.368,0l1.043,2.655c-.15.023-.274.044-.4.06q-1.157.15-2.314.3a.7.7,0,0,1-.159-.016.881.881,0,0,1,.057-.152c.2-.338.408-.673.613-1.009A7.054,7.054,0,0,0,2.769,3.127a7.142,7.142,0,0,0,10.141,10.06l.493.513a7.869,7.869,0,1,1-1.8-12.528" transform="translate(0 0)" fill="#084b6d"/>
  <path id="Fill_3" data-name="Fill 3" d="M4.236,9.6a.354.354,0,0,1-.18-.056C2.79,8.813,1.489,8.064.189,7.32A.321.321,0,0,1,0,7c.006-.542.005-1.094,0-1.628q0-.291,0-.581,0-.274,0-.547V4.209c0-.518,0-1.053-.005-1.58a.358.358,0,0,1,.213-.364C1.324,1.632,2.535.933,4.024.065A.4.4,0,0,1,4.224,0a.387.387,0,0,1,.2.062l.35.2c1.114.65,2.266,1.321,3.412,1.957a.548.548,0,0,1,.328.571c-.014,1.4-.009,2.824,0,4.2a.294.294,0,0,1-.169.3C6.928,8.1,5.645,8.837,4.414,9.549A.352.352,0,0,1,4.236,9.6ZM.411,2.705a.231.231,0,0,1,0,.024l0,.011a.1.1,0,0,0,0,.023v1.2c0,.979,0,1.992,0,2.989,0,.1.059.136.122.173L2.27,8.131,4.02,9.14a.571.571,0,0,0,.078.038l.043.019,0-.007s0-.009,0-.013l0-.012a.094.094,0,0,0,.005-.028V8.675c0-1.206,0-2.453,0-3.705a.238.238,0,0,0-.11-.159c-.318-.185-.635-.362-.933-.528l-.2-.113-.055-.03-.036-.02L2.779,4.1l-.035-.019L2.676,4.04l-.031-.017-.073-.041v1.4c-.024-.013-.046-.028-.065-.041l-.005,0a.255.255,0,0,0-.123-.059H2.371l-.049,0a.437.437,0,0,1-.351-.185l-.023-.028c-.058-.072-.118-.146-.2-.146A.273.273,0,0,0,1.579,5V4.534c0-.347,0-.664,0-.941a.2.2,0,0,0-.053-.147C1.316,3.3,1.113,3.17.9,3.027l-.076-.05L.688,2.888.619,2.843.586,2.821Zm7.7,0-.035.015-.015.007a.267.267,0,0,0-.035.018l-.5.288L6.894,3.4c-.671.387-1.555.9-2.449,1.408A.182.182,0,0,0,4.353,5q0,2.029,0,4.059a.72.72,0,0,0,.006.079v.012c0,.007,0,.014,0,.021s0,.014,0,.021l.024-.007.034-.013,1.2-.691.015-.008c.9-.52,1.679-.968,2.382-1.372a.185.185,0,0,0,.094-.191q0-1.127,0-2.254V2.705ZM6.349,1.552a.244.244,0,0,0-.125.041C5.221,2.176,4.313,2.7,3.969,2.9l-.013.007-.609.353-.609.352a.511.511,0,0,0-.054.036l0,0,0,0-.005,0-.021.014-.021.014.33.192.051.03,0,0,.117.067.105.061c.283.164.576.333.871.51a.233.233,0,0,0,.118.039.245.245,0,0,0,.12-.04c.781-.454,1.574-.912,2.35-1.36l.281-.163.842-.486c.034-.02.066-.041.107-.068l.02-.013-.036-.023-.029-.019-.006,0c-.018-.012-.035-.023-.053-.032l-.4-.233-.007,0c-.311-.179-.617-.358-.935-.546A.242.242,0,0,0,6.349,1.552ZM4.224.324A.246.246,0,0,0,4.1.364c-.85.495-1.709.992-2.7,1.566l-.756.436-.044.027L.579,2.4.55,2.422.5,2.454l.112.065.063.037.063.037.1.055.009,0,.193.111.215.125c.147.085.3.172.449.263a.218.218,0,0,0,.112.037.22.22,0,0,0,.112-.037c.426-.249.881-.513,1.39-.806L3.732,2.1l.425-.245,1.387-.8L5.442,1,5.325.931,5.208.864,5.185.85,5.119.813C4.838.652,4.6.512,4.35.365A.247.247,0,0,0,4.224.324Z" transform="translate(3.687 3.28)" fill="#084b6d"/>
</svg>
